<svg preserveAspectRatio="none" width="100%" height="100%" overflow="visible" style="display: block;" viewBox="0 0 24 24" fill="none" xmlns="http://www.w3.org/2000/svg">
<g id="headset 1">
<path id="Vector" d="M21 12.424V11C21 8.61305 20.0518 6.32387 18.364 4.63604C16.6761 2.94821 14.3869 2 12 2C9.61305 2 7.32387 2.94821 5.63604 4.63604C3.94821 6.32387 3 8.61305 3 11V12.424C1.95116 12.8858 1.0928 13.694 0.568621 14.7131C0.0444425 15.7322 -0.113739 16.9004 0.120557 18.0222C0.354854 19.1441 0.967407 20.1513 1.85567 20.8755C2.74393 21.5996 3.85399 21.9966 5 22C5.53043 22 6.03914 21.7893 6.41421 21.4142C6.78929 21.0391 7 20.5304 7 20V14C7 13.4696 6.78929 12.9609 6.41421 12.5858C6.03914 12.2107 5.53043 12 5 12V11C5 9.14348 5.7375 7.36301 7.05025 6.05025C8.36301 4.7375 10.1435 4 12 4C13.8565 4 15.637 4.7375 16.9497 6.05025C18.2625 7.36301 19 9.14348 19 11V12C18.4696 12 17.9609 12.2107 17.5858 12.5858C17.2107 12.9609 17 13.4696 17 14V20H14C13.7348 20 13.4804 20.1054 13.2929 20.2929C13.1054 20.4804 13 20.7348 13 21C13 21.2652 13.1054 21.5196 13.2929 21.7071C13.4804 21.8946 13.7348 22 14 22H19C20.146 21.9966 21.2561 21.5996 22.1443 20.8755C23.0326 20.1513 23.6451 19.1441 23.8794 18.0222C24.1137 16.9004 23.9556 15.7322 23.4314 14.7131C22.9072 13.694 22.0488 12.8858 21 12.424ZM5 20C4.20435 20 3.44129 19.6839 2.87868 19.1213C2.31607 18.5587 2 17.7956 2 17C2 16.2044 2.31607 15.4413 2.87868 14.8787C3.44129 14.3161 4.20435 14 5 14V20ZM19 20V14C19.7956 14 20.5587 14.3161 21.1213 14.8787C21.6839 15.4413 22 16.2044 22 17C22 17.7956 21.6839 18.5587 21.1213 19.1213C20.5587 19.6839 19.7956 20 19 20Z" fill="#39E75F"/>
</g>
</svg>
