<svg preserveAspectRatio="none" width="100%" height="100%" overflow="visible" style="display: block;" viewBox="0 0 623.999 624" fill="none" xmlns="http://www.w3.org/2000/svg">
<g id="Radar">
<path id="Vector" fill-rule="evenodd" clip-rule="evenodd" d="M0.0878015 321.105C0 318.12 0 315.047 0 312.062C0 308.989 0 305.916 0.175603 302.931H251.376C256.38 302.931 260.507 306.969 260.507 312.062C260.507 317.067 256.38 321.105 251.376 321.105H0.0878015Z" fill="url(#paint0_linear_0_6)"/>
<path id="Vector_2" fill-rule="evenodd" clip-rule="evenodd" d="M311.695 623.999C308.622 623.999 305.549 623.999 302.564 623.911V372.368C302.564 367.359 306.603 363.316 311.695 363.316C316.7 363.316 320.739 367.359 320.739 372.368V623.911C317.754 623.999 314.681 623.999 311.695 623.999Z" fill="url(#paint1_linear_0_6)"/>
<path id="Vector_3" fill-rule="evenodd" clip-rule="evenodd" d="M445.349 446.174C371.548 519.974 251.493 519.442 178.088 446.038C104.213 372.163 104.623 252.264 178.031 178.856C202.893 153.995 233.643 136.747 267.145 128.682C273.108 127.273 279.387 130.885 280.724 136.771C282.061 142.657 278.533 149.011 272.649 150.342C243.227 157.154 216.006 172.598 193.89 194.715C128.638 259.966 129.162 365.427 193.931 430.196C258.778 495.043 364.709 495.096 429.49 430.315C450.274 409.532 465.248 383.724 473.315 354.773C474.725 348.81 481 345.204 487.357 347.012C493.321 348.427 496.934 354.707 495.133 361.062C485.576 393.228 468.877 422.645 445.349 446.174ZM495.57 294.521C493.766 296.325 491.883 297.266 489.608 297.657C483.331 298.596 477.836 294.042 476.499 288.156C471.459 252.372 454.729 220.27 428.9 194.442C407.075 172.616 379.917 157.223 350.096 149.989C344.132 148.573 340.519 142.294 341.928 136.331C343.259 130.447 349.535 126.841 355.499 128.256C389.009 136.355 419.777 153.634 444.742 178.599C474.182 208.039 492.798 244.693 498.703 284.95C499.568 288.638 497.844 292.247 495.57 294.521Z" fill="url(#paint2_linear_0_6)"/>
<path id="Vector_4" d="M593.609 334.285H380.882C372.823 334.284 365.095 331.081 359.397 325.381L298.618 264.602C292.918 258.904 289.715 251.176 289.714 243.117V30.3896C289.714 22.3298 292.915 14.6 298.615 8.9009C304.314 3.20175 312.043 0 320.103 0C400.674 0.0884822 477.92 32.1344 534.892 89.1067C591.865 146.079 623.911 223.325 623.999 303.896C623.999 311.956 620.797 319.685 615.098 325.384C609.399 331.084 601.669 334.285 593.609 334.285Z" fill="url(#paint3_linear_0_6)"/>
<path id="Vector_5" d="M311.756 624C238.181 623.885 167.011 597.813 110.797 550.383C54.5829 502.953 16.9361 437.211 4.49619 364.753C-7.94368 292.295 5.62257 217.775 42.8023 154.336C79.982 90.8966 138.387 42.6138 207.716 18.003C215.47 15.4734 223.907 16.0764 231.222 19.6829C238.537 23.2894 244.15 29.6131 246.859 37.3013C249.567 44.9894 249.158 53.4315 245.717 60.8218C242.277 68.212 236.079 73.9635 228.449 76.8461C188.602 90.8393 152.956 114.7 124.845 146.197C96.7332 177.694 77.0733 215.8 67.703 256.951C58.3327 298.103 59.558 340.956 71.2644 381.506C82.9707 422.056 104.776 458.978 134.641 488.82C164.507 518.662 201.457 540.45 242.039 552.147C282.621 563.844 325.508 565.069 366.691 555.706C407.875 546.343 446.01 526.698 477.532 498.609C509.054 470.519 532.933 434.901 546.938 395.086C549.687 387.278 555.428 380.882 562.897 377.304C570.365 373.726 578.951 373.26 586.764 376.007C594.578 378.754 600.979 384.49 604.56 391.953C608.14 399.416 608.607 407.995 605.858 415.802C584.384 476.624 544.574 529.3 491.906 566.584C439.238 603.868 376.301 623.927 311.756 624Z" fill="url(#paint4_linear_0_6)"/>
<path id="Vector_6" d="M311.755 405.603C293.229 405.603 275.118 400.114 259.713 389.829C244.309 379.544 232.303 364.926 225.213 347.822C218.123 330.719 216.268 311.9 219.882 293.743C223.497 275.586 232.418 258.908 245.518 245.818C258.619 232.728 275.31 223.814 293.481 220.202C311.651 216.59 330.486 218.444 347.603 225.528C364.719 232.613 379.349 244.61 389.642 260.002C399.935 275.394 405.429 293.491 405.429 312.003C405.429 336.828 395.559 360.635 377.992 378.188C360.425 395.742 336.599 405.603 311.755 405.603Z" fill="url(#paint5_linear_0_6)"/>
</g>
<defs>
<linearGradient id="paint0_linear_0_6" x1="260.507" y1="302.931" x2="225.906" y2="400.895" gradientUnits="userSpaceOnUse">
<stop stop-color="#CFF412"/>
<stop offset="1" stop-color="#00CD3B"/>
</linearGradient>
<linearGradient id="paint1_linear_0_6" x1="320.739" y1="363.316" x2="298.978" y2="363.615" gradientUnits="userSpaceOnUse">
<stop stop-color="#CFF412"/>
<stop offset="1" stop-color="#00CD3B"/>
</linearGradient>
<linearGradient id="paint2_linear_0_6" x1="311.515" y1="45.3722" x2="64.4453" y2="413.923" gradientUnits="userSpaceOnUse">
<stop stop-color="#CFF412"/>
<stop offset="1" stop-color="#00CD3B"/>
</linearGradient>
<linearGradient id="paint3_linear_0_6" x1="256.285" y1="467.999" x2="656.554" y2="289.982" gradientUnits="userSpaceOnUse">
<stop stop-color="#14D137" stop-opacity="0"/>
<stop offset="1" stop-color="#14D137"/>
</linearGradient>
<linearGradient id="paint4_linear_0_6" x1="607.629" y1="16.4624" x2="-92.6918" y2="154.818" gradientUnits="userSpaceOnUse">
<stop stop-color="#CFF412"/>
<stop offset="1" stop-color="#00CD3B"/>
</linearGradient>
<linearGradient id="paint5_linear_0_6" x1="405.429" y1="218.403" x2="189.513" y2="261.087" gradientUnits="userSpaceOnUse">
<stop stop-color="#CFF412"/>
<stop offset="1" stop-color="#00CD3B"/>
</linearGradient>
</defs>
</svg>
